# xmcd
#
# Track frame offsets: 
#        150
#        20643
#        40405
#        60165
#        79578
#        99998
#        115508
#        131612
#        149411
#        165529
#        184188
#        200676
#        219038
#        240452
#        262500
#        280608
#        297612
#
# Disc length: 4224 seconds
#
# Revision: 0
# Processed by: cddbd v1.5.2PL0 Copyright (c) Steve Scherf et al.
# Submitted via: ExactAudioCopy v1.1
#
DISCID=e4107e11
DTITLE=Various Artist - 100年後の日本人に残したい… デュエット歌謡 名曲特撰
DYEAR=2012
DGENRE=A Cappella
TTITLE0=山本譲二 川中美幸 - 仁川エアポート
TTITLE1=石原裕次郎 牧村旬子 - 銀座の恋の物語
TTITLE2=川中美幸 弦 哲也 - 二輪草（デュエット版）
TTITLE3=藤田まこと 川中美幸 - 浪花恋しぐれ
TTITLE4=前川 清 チェウニ - スロー・グッドナイト
TTITLE5=石原裕次郎 八代亜紀 - 夜のめぐり逢い
TTITLE6=立花潤一 長沢 薫 - 北空港
TTITLE7=川中美幸 増位山太志郎 - ふたりの大阪
TTITLE8=増位山太志郎 長沢薫 - アマン
TTITLE9=前川 清 藤山直美 - Love Songが聴こえない
TTITLE10=増位山太志郎 日野美歌 - 今夜は離さない
TTITLE11=朝丘雪路 山本譲二 - めぐり逢い…東京
TTITLE12=川中美幸 増位山太志郎 - ふたりのラブソング
TTITLE13=三門忠司 永井みゆき - 小春三吉 相惚れ駒
TTITLE14=増位山太志郎 長沢 薫 - いつか逢う日を夢みて
TTITLE15=石原裕次郎 愛まち子 - 銀の指輪
TTITLE16=増位山太志郎 日野美歌 - もしかしてPARTII
EXTD=
EXTT0=
EXTT1=
EXTT2=
EXTT3=
EXTT4=
EXTT5=
EXTT6=
EXTT7=
EXTT8=
EXTT9=
EXTT10=
EXTT11=
EXTT12=
EXTT13=
EXTT14=
EXTT15=
EXTT16=
PLAYORDER=
